<svg width="1024" height="1024" viewBox="0 0 1024 1024" xmlns="http://www.w3.org/2000/svg"><defs><linearGradient id="bg" x1="0" y1="0" x2="0" y2="1"><stop offset="0" stop-color="#4AA8FF"/><stop offset="1" stop-color="#1478FA"/></linearGradient><radialGradient id="gloss" cx="0.5" cy="0.02" r="0.8"><stop offset="0" stop-color="#ffffff" stop-opacity="0.30"/><stop offset="0.55" stop-color="#ffffff" stop-opacity="0"/></radialGradient><linearGradient id="yg" gradientUnits="userSpaceOnUse" x1="512" y1="250" x2="512" y2="780"><stop offset="0" stop-color="#FCFEFF"/><stop offset="0.45" stop-color="#E4EFFF"/><stop offset="0.8" stop-color="#BFD4FF"/><stop offset="1" stop-color="#AAC6FF"/></linearGradient><filter id="spec" x="-30%" y="-30%" width="160%" height="160%"><feGaussianBlur in="SourceAlpha" stdDeviation="7" result="b"/><feSpecularLighting in="b" surfaceScale="7" specularConstant="0.9" specularExponent="20" lighting-color="#ffffff" result="s"><fePointLight x="320" y="80" z="220"/></feSpecularLighting><feComposite in="s" in2="SourceAlpha" operator="in" result="sc"/><feMerge><feMergeNode in="SourceGraphic"/><feMergeNode in="sc"/></feMerge></filter></defs><rect x="96" y="96" width="832" height="832" rx="200" fill="url(#bg)"/><rect x="96" y="96" width="832" height="832" rx="200" fill="url(#gloss)"/><g filter="url(#spec)" fill="url(#yg)"><circle cx="330" cy="315" r="60"/><circle cx="512" cy="560" r="60"/><circle cx="694" cy="315" r="60"/><polygon points="281.8,350.8 463.8,595.8 560.2,524.2 378.2,279.2"/><polygon points="560.2,595.8 742.2,350.8 645.8,279.2 463.8,524.2"/><circle cx="512" cy="560" r="60"/><circle cx="512" cy="712" r="60"/><polygon points="452.0,560.0 452.0,712.0 572.0,712.0 572.0,560.0"/></g></svg>