<svg width="1024" height="1024" viewBox="0 0 1024 1024" xmlns="http://www.w3.org/2000/svg"><g fill="white"><circle cx="330.0" cy="318.0" r="53"/><circle cx="347.1" cy="339.1" r="53"/><circle cx="363.6" cy="359.7" r="53"/><circle cx="379.4" cy="379.6" r="53"/><circle cx="394.7" cy="399.0" r="53"/><circle cx="409.2" cy="417.7" r="53"/><circle cx="423.2" cy="435.9" r="53"/><circle cx="436.5" cy="453.5" r="53"/><circle cx="449.2" cy="470.5" r="53"/><circle cx="461.2" cy="486.9" r="53"/><circle cx="472.7" cy="502.7" r="53"/><circle cx="483.4" cy="517.9" r="53"/><circle cx="493.6" cy="532.5" r="53"/><circle cx="503.1" cy="546.6" r="53"/><circle cx="512.0" cy="560.0" r="53"/><polygon points="288.8,351.4 305.9,372.5 388.3,305.8 371.2,284.6"/><polygon points="305.8,372.3 322.3,392.8 404.9,326.5 388.5,306.0"/><polygon points="322.1,392.6 337.9,412.6 420.9,346.7 405.1,326.7"/><polygon points="337.8,412.4 353.0,431.7 436.3,366.2 421.1,346.9"/><polygon points="352.8,431.5 367.4,450.3 451.1,385.2 436.5,366.5"/><polygon points="367.2,450.0 381.1,468.2 465.2,403.6 451.3,385.5"/><polygon points="380.9,467.9 394.3,485.5 478.7,421.5 465.4,403.9"/><polygon points="394.0,485.2 406.7,502.2 491.7,438.8 479.0,421.8"/><polygon points="406.5,501.9 418.5,518.3 503.9,455.5 491.9,439.1"/><polygon points="418.3,517.9 429.7,533.7 515.6,471.7 504.2,455.9"/><polygon points="429.4,533.3 440.2,548.6 526.7,487.3 515.9,472.0"/><polygon points="439.9,548.1 450.1,562.8 537.1,502.3 527.0,487.7"/><polygon points="449.7,562.3 459.3,576.3 547.0,516.8 537.4,502.8"/><polygon points="458.9,575.8 467.8,589.2 556.2,530.8 547.3,517.3"/><circle cx="694.0" cy="318.0" r="53"/><circle cx="676.9" cy="339.1" r="53"/><circle cx="660.4" cy="359.7" r="53"/><circle cx="644.6" cy="379.6" r="53"/><circle cx="629.3" cy="399.0" r="53"/><circle cx="614.8" cy="417.7" r="53"/><circle cx="600.8" cy="435.9" r="53"/><circle cx="587.5" cy="453.5" r="53"/><circle cx="574.8" cy="470.5" r="53"/><circle cx="562.8" cy="486.9" r="53"/><circle cx="551.3" cy="502.7" r="53"/><circle cx="540.6" cy="517.9" r="53"/><circle cx="530.4" cy="532.5" r="53"/><circle cx="520.9" cy="546.6" r="53"/><circle cx="512.0" cy="560.0" r="53"/><polygon points="652.8,284.6 635.7,305.8 718.1,372.5 735.2,351.4"/><polygon points="635.5,306.0 619.1,326.5 701.7,392.8 718.2,372.3"/><polygon points="618.9,326.7 603.1,346.7 686.1,412.6 701.9,392.6"/><polygon points="602.9,346.9 587.7,366.2 671.0,431.7 686.2,412.4"/><polygon points="587.5,366.5 572.9,385.2 656.6,450.3 671.2,431.5"/><polygon points="572.7,385.5 558.8,403.6 642.9,468.2 656.8,450.0"/><polygon points="558.6,403.9 545.3,421.5 629.7,485.5 643.1,467.9"/><polygon points="545.0,421.8 532.3,438.8 617.3,502.2 630.0,485.2"/><polygon points="532.1,439.1 520.1,455.5 605.5,518.3 617.5,501.9"/><polygon points="519.8,455.9 508.4,471.7 594.3,533.7 605.7,517.9"/><polygon points="508.1,472.0 497.3,487.3 583.8,548.6 594.6,533.3"/><polygon points="497.0,487.7 486.9,502.3 573.9,562.8 584.1,548.1"/><polygon points="486.6,502.8 477.0,516.8 564.7,576.3 574.3,562.3"/><polygon points="476.7,517.3 467.8,530.8 556.2,589.2 565.1,575.8"/><circle cx="512.0" cy="560.0" r="53"/><circle cx="512.0" cy="712.0" r="53"/><polygon points="459.0,560.0 459.0,712.0 565.0,712.0 565.0,560.0"/></g></svg>